<svg width="17" height="17" viewBox="0 0 17 17" fill="none" xmlns="http://www.w3.org/2000/svg">
<mask id="mask0_1_1388" style="mask-type:alpha" maskUnits="userSpaceOnUse" x="0" y="0" width="17" height="17">
<rect width="17" height="17" fill="#D9D9D9"/>
</mask>
<g mask="url(#mask0_1_1388)">
<path d="M1.41663 15.5832V2.83317C1.41663 2.44359 1.55534 2.11008 1.83277 1.83265C2.1102 1.55522 2.44371 1.4165 2.83329 1.4165H14.1666C14.5562 1.4165 14.8897 1.55522 15.1671 1.83265C15.4446 2.11008 15.5833 2.44359 15.5833 2.83317V11.3332C15.5833 11.7228 15.4446 12.0563 15.1671 12.3337C14.8897 12.6111 14.5562 12.7498 14.1666 12.7498H4.24996L1.41663 15.5832ZM3.64788 11.3332H14.1666V2.83317H2.83329V12.13L3.64788 11.3332Z" fill="#FFAD1E"/>
</g>
</svg>
