<svg width="30" height="30" viewBox="0 0 30 30" fill="none" xmlns="http://www.w3.org/2000/svg">
<mask id="mask0_8_1608" style="mask-type:alpha" maskUnits="userSpaceOnUse" x="0" y="0" width="30" height="30">
<rect width="30" height="30" fill="#D9D9D9"/>
</mask>
<g mask="url(#mask0_8_1608)">
<path d="M17.5 27.5V23.6563L24.4062 16.7812C24.5938 16.5938 24.8021 16.4583 25.0312 16.375C25.2604 16.2917 25.4896 16.25 25.7188 16.25C25.9688 16.25 26.2083 16.2969 26.4375 16.3906C26.6667 16.4844 26.875 16.625 27.0625 16.8125L28.2188 17.9688C28.3854 18.1562 28.5156 18.3646 28.6094 18.5938C28.7031 18.8229 28.75 19.0521 28.75 19.2812C28.75 19.5104 28.7083 19.7448 28.625 19.9844C28.5417 20.224 28.4063 20.4375 28.2188 20.625L21.3438 27.5H17.5ZM19.375 25.625H20.5625L24.3438 21.8125L23.7812 21.2188L23.1875 20.6562L19.375 24.4375V25.625ZM7.5 27.5C6.8125 27.5 6.22396 27.2552 5.73438 26.7656C5.24479 26.276 5 25.6875 5 25V5C5 4.3125 5.24479 3.72396 5.73438 3.23438C6.22396 2.74479 6.8125 2.5 7.5 2.5H17.5L25 10V13.75H22.5V11.25H16.25V5H7.5V25H15V27.5H7.5ZM23.7812 21.2188L23.1875 20.6562L24.3438 21.8125L23.7812 21.2188Z" fill="#1C1B1F"/>
</g>
</svg>
