<svg width="14" height="14" viewBox="0 0 14 14" fill="none" xmlns="http://www.w3.org/2000/svg">
<mask id="mask0_1_980" style="mask-type:alpha" maskUnits="userSpaceOnUse" x="0" y="0" width="14" height="14">
<rect width="14" height="14" fill="#D9D9D9"/>
</mask>
<g mask="url(#mask0_1_980)">
<path d="M6.99996 12.2501L6.15413 11.4917C5.17218 10.607 4.36038 9.84381 3.71871 9.20215C3.07704 8.56048 2.56663 7.98444 2.18746 7.47402C1.80829 6.96361 1.54336 6.49451 1.39267 6.06673C1.24197 5.63895 1.16663 5.20145 1.16663 4.75423C1.16663 3.84034 1.47288 3.07715 2.08538 2.46465C2.69788 1.85215 3.46107 1.5459 4.37496 1.5459C4.88052 1.5459 5.36176 1.65284 5.81871 1.86673C6.27565 2.08062 6.6694 2.38201 6.99996 2.7709C7.33052 2.38201 7.72427 2.08062 8.18121 1.86673C8.63815 1.65284 9.1194 1.5459 9.62496 1.5459C10.5388 1.5459 11.302 1.85215 11.9145 2.46465C12.527 3.07715 12.8333 3.84034 12.8333 4.75423C12.8333 5.20145 12.7579 5.63895 12.6073 6.06673C12.4566 6.49451 12.1916 6.96361 11.8125 7.47402C11.4333 7.98444 10.9229 8.56048 10.2812 9.20215C9.63954 9.84381 8.82774 10.607 7.84579 11.4917L6.99996 12.2501ZM6.99996 10.6751C7.93329 9.83895 8.70135 9.12194 9.30413 8.52402C9.9069 7.92611 10.3833 7.40597 10.7333 6.96361C11.0833 6.52125 11.3263 6.1275 11.4625 5.78236C11.5986 5.43722 11.6666 5.09451 11.6666 4.75423C11.6666 4.1709 11.4722 3.68479 11.0833 3.2959C10.6944 2.90701 10.2083 2.71257 9.62496 2.71257C9.16802 2.71257 8.7451 2.84138 8.35621 3.09902C7.96732 3.35666 7.69996 3.68479 7.55413 4.0834H6.44579C6.29996 3.68479 6.0326 3.35666 5.64371 3.09902C5.25482 2.84138 4.8319 2.71257 4.37496 2.71257C3.79163 2.71257 3.30552 2.90701 2.91663 3.2959C2.52774 3.68479 2.33329 4.1709 2.33329 4.75423C2.33329 5.09451 2.40135 5.43722 2.53746 5.78236C2.67357 6.1275 2.91663 6.52125 3.26663 6.96361C3.61663 7.40597 4.09302 7.92611 4.69579 8.52402C5.29857 9.12194 6.06663 9.83895 6.99996 10.6751Z" fill="#1C1B1F"/>
</g>
</svg>
